<svg width="18" height="18" viewBox="0 0 18 18" fill="none" xmlns="http://www.w3.org/2000/svg">
<path d="M10.9962 9.00025C10.9962 9.09064 10.9818 9.17477 10.9529 9.25265C10.9241 9.33053 10.8745 9.40457 10.8044 9.47476L7.43369 12.8454C7.32985 12.9493 7.19933 13.0024 7.04212 13.0048C6.8849 13.0072 6.75197 12.9541 6.64332 12.8454C6.53467 12.7368 6.48035 12.6051 6.48035 12.4503C6.48035 12.2955 6.53467 12.1637 6.64332 12.0551L9.69815 9.00025L6.64332 5.94543C6.53948 5.84159 6.48636 5.71107 6.48395 5.55385C6.48155 5.39665 6.53467 5.26373 6.64332 5.15508C6.75197 5.04642 6.8837 4.99209 7.03851 4.99209C7.19331 4.99209 7.32504 5.04642 7.43369 5.15508L10.8044 8.52575C10.8745 8.59593 10.9241 8.66997 10.9529 8.74786C10.9818 8.82573 10.9962 8.90987 10.9962 9.00025Z" fill="#8F95B2"/>
</svg>
