<svg width="18" height="18" viewBox="0 0 18 18" fill="none" xmlns="http://www.w3.org/2000/svg">
<path d="M7.00381 8.99975C7.00381 8.90936 7.01823 8.82523 7.04708 8.74735C7.07593 8.66946 7.12545 8.59543 7.19564 8.52524L10.5663 5.15457C10.6701 5.05072 10.8007 4.9976 10.9579 4.9952C11.1151 4.99278 11.248 5.04591 11.3567 5.15457C11.4653 5.26322 11.5197 5.39495 11.5197 5.54975C11.5197 5.70455 11.4653 5.83627 11.3567 5.94492L8.30185 8.99975L11.3567 12.0546C11.4605 12.1584 11.5136 12.2889 11.5161 12.4461C11.5185 12.6033 11.4653 12.7363 11.3567 12.8449C11.248 12.9536 11.1163 13.0079 10.9615 13.0079C10.8067 13.0079 10.675 12.9536 10.5663 12.8449L7.19564 9.47425C7.12545 9.40406 7.07593 9.33003 7.04708 9.25214C7.01823 9.17426 7.00381 9.09013 7.00381 8.99975Z" fill="#8F95B2"/>
</svg>
